<svg width="41" height="41" viewBox="0 0 41 41" fill="none" xmlns="http://www.w3.org/2000/svg">
<path d="M33.17 11.4097C34.93 13.278 35.875 15.375 35.875 18.7739C35.875 24.7521 31.6785 30.1115 25.5727 32.7603L24.0477 30.4068C29.7454 27.324 30.859 23.3254 31.3041 20.8039C30.3868 21.2783 29.1859 21.4452 28.0086 21.336C24.9262 21.0504 22.4967 18.5198 22.4967 15.375C22.4967 12.0727 25.1737 9.39579 28.4759 9.39579C30.3091 9.39579 32.0621 10.2336 33.17 11.4097ZM16.0867 11.4097C17.8466 13.278 18.7917 15.375 18.7917 18.7739C18.7917 24.7521 14.5951 30.1115 8.48939 32.7603L6.96437 30.4068C12.6622 27.324 13.7757 23.3254 14.2208 20.8039C13.3035 21.2783 12.1025 21.4452 10.9253 21.336C7.84279 21.0504 5.41337 18.5198 5.41337 15.375C5.41337 12.0727 8.09033 9.39579 11.3925 9.39579C13.2257 9.39579 14.9787 10.2336 16.0867 11.4097Z" fill="#3A4B60"/>
</svg>
