<svg width="56" height="56" viewBox="0 0 56 56" fill="none" xmlns="http://www.w3.org/2000/svg">
<rect width="56" height="56" rx="28" fill="white" fill-opacity="0.1"/>
<path d="M29.0275 18.0005C30.1529 18.0023 30.7232 18.0083 31.216 18.023L31.4101 18.0293C31.6343 18.0373 31.8555 18.0473 32.1222 18.0598C33.1863 18.1089 33.9122 18.2773 34.5497 18.5248C35.2088 18.7789 35.7655 19.1223 36.3213 19.6781C36.8763 20.2339 37.2197 20.7923 37.4747 21.4498C37.7213 22.0864 37.8897 22.8131 37.9397 23.8773C37.9516 24.1439 37.9612 24.3651 37.9691 24.5894L37.9754 24.7835C37.99 25.2762 37.9967 25.8466 37.9988 26.972L37.9996 27.7177C37.9997 27.8088 37.9997 27.9028 37.9997 27.9998L37.9996 28.2819L37.999 29.0276C37.9971 30.153 37.9912 30.7233 37.9765 31.2161L37.9701 31.4102C37.9622 31.6344 37.9522 31.8556 37.9397 32.1223C37.8905 33.1864 37.7213 33.9123 37.4747 34.5498C37.2205 35.2089 36.8763 35.7656 36.3213 36.3214C35.7655 36.8764 35.2063 37.2198 34.5497 37.4748C33.9122 37.7214 33.1863 37.8898 32.1222 37.9398C31.8555 37.9517 31.6343 37.9613 31.4101 37.9692L31.216 37.9755C30.7232 37.9901 30.1529 37.9968 29.0275 37.9989L28.2818 37.9997C28.1907 37.9998 28.0967 37.9998 27.9997 37.9998L27.7176 37.9997L26.9719 37.9991C25.8465 37.9972 25.2761 37.9913 24.7833 37.9766L24.5892 37.9702C24.365 37.9623 24.1438 37.9523 23.8771 37.9398C22.813 37.8906 22.088 37.7214 21.4496 37.4748C20.7913 37.2206 20.2338 36.8764 19.678 36.3214C19.1221 35.7656 18.7796 35.2064 18.5246 34.5498C18.2771 33.9123 18.1096 33.1864 18.0596 32.1223C18.0478 31.8556 18.0381 31.6344 18.0302 31.4102L18.0239 31.2161C18.0093 30.7233 18.0026 30.153 18.0005 29.0276L18.0003 26.972C18.0022 25.8466 18.0081 25.2762 18.0228 24.7835L18.0292 24.5894C18.0371 24.3651 18.0471 24.1439 18.0596 23.8773C18.1088 22.8123 18.2771 22.0873 18.5246 21.4498C18.7788 20.7914 19.1221 20.2339 19.678 19.6781C20.2338 19.1223 20.7921 18.7798 21.4496 18.5248C22.0871 18.2773 22.8121 18.1098 23.8771 18.0598C24.1438 18.0479 24.365 18.0382 24.5892 18.0304L24.7833 18.0241C25.2761 18.0094 25.8465 18.0028 26.9719 18.0006L29.0275 18.0005ZM27.9997 22.9998C25.2367 22.9998 22.9996 25.2393 22.9996 27.9998C22.9996 30.7627 25.2392 32.9998 27.9997 32.9998C30.7626 32.9998 32.9997 30.7602 32.9997 27.9998C32.9997 25.2369 30.7601 22.9998 27.9997 22.9998ZM27.9997 24.9998C29.6566 24.9998 30.9997 26.3424 30.9997 27.9998C30.9997 29.6567 29.657 30.9998 27.9997 30.9998C26.3428 30.9998 24.9996 29.6571 24.9996 27.9998C24.9996 26.3429 26.3423 24.9998 27.9997 24.9998ZM33.2497 21.4998C32.5604 21.4998 31.9997 22.0597 31.9997 22.7489C31.9997 23.4382 32.5596 23.9989 33.2497 23.9989C33.9389 23.9989 34.4997 23.439 34.4997 22.7489C34.4997 22.0597 33.938 21.4989 33.2497 21.4998Z" fill="white"/>
</svg>
