<svg width="55" height="60" viewBox="0 0 55 60" fill="none" xmlns="http://www.w3.org/2000/svg">
<path fill-rule="evenodd" clip-rule="evenodd" d="M36.5978 55.9917C41.8495 54.5243 47.3478 53.784 52.6816 53.1058C53.8304 52.9637 54.897 53.757 54.979 54.8748C55.1432 55.9933 54.3221 57.0163 53.2554 57.1585C48.0857 57.8113 42.7524 58.5099 37.7469 59.9226C36.6801 60.229 35.5308 59.5982 35.2026 58.5132C34.8744 57.4289 35.531 56.2989 36.5978 55.9917Z" fill="#FF8A00"/>
<path fill-rule="evenodd" clip-rule="evenodd" d="M20.6792 35.1868C29.1312 26.5986 38.6499 19.1159 46.9377 10.2973C47.6763 9.47371 48.9892 9.42959 49.8098 10.1984C50.6303 10.9681 50.7121 12.2624 49.8915 13.086C41.6037 21.9299 32.0849 29.4371 23.633 38.0506C22.8124 38.8546 21.4998 38.866 20.6792 38.0751C19.9407 37.285 19.8586 35.9908 20.6792 35.1868Z" fill="#FF8A00"/>
<path fill-rule="evenodd" clip-rule="evenodd" d="M4.84094 2.15359C4.59477 7.06906 4.34907 11.9845 4.1029 16.9008C4.1029 18.0267 3.11772 18.8961 1.96891 18.8413C0.820104 18.7858 5.72205e-06 17.8274 5.72205e-06 16.7006C0.24618 11.777 0.491872 6.85417 0.738046 1.93135C0.820104 0.805429 1.80496 -0.0582104 2.95377 0.00306958C4.02052 0.0643495 4.923 1.02849 4.84094 2.15359Z" fill="#FF8A00"/>
</svg>
