<svg width="55" height="60" viewBox="0 0 55 60" fill="none" xmlns="http://www.w3.org/2000/svg">
<path fill-rule="evenodd" clip-rule="evenodd" d="M18.4022 55.9917C13.1505 54.5243 7.65218 53.784 2.31841 53.1058C1.1696 52.9637 0.103011 53.757 0.0209532 54.8748C-0.143163 55.9933 0.677897 57.0163 1.74465 57.1585C6.9143 57.8113 12.2476 58.5099 17.2531 59.9226C18.3199 60.229 19.4692 59.5982 19.7974 58.5132C20.1256 57.4289 19.469 56.2989 18.4022 55.9917Z" fill="#FF8A00"/>
<path fill-rule="evenodd" clip-rule="evenodd" d="M34.3208 35.1867C25.8688 26.5985 16.3501 19.1158 8.06226 10.2972C7.32374 9.47362 6.01082 9.4295 5.19024 10.1984C4.36966 10.968 4.28792 12.2623 5.1085 13.0859C13.3963 21.9298 22.9151 29.437 31.367 38.0505C32.1876 38.8545 33.5002 38.8659 34.3208 38.075C35.0593 37.2849 35.1414 35.9907 34.3208 35.1867Z" fill="#FF8A00"/>
<path fill-rule="evenodd" clip-rule="evenodd" d="M50.1591 2.15359C50.4052 7.06906 50.6509 11.9845 50.8971 16.9008C50.8971 18.0267 51.8823 18.8961 53.0311 18.8413C54.1799 18.7858 55 17.8274 55 16.7006C54.7538 11.777 54.5081 6.85417 54.262 1.93135C54.1799 0.805429 53.195 -0.0582104 52.0462 0.00306958C50.9795 0.0643495 50.077 1.02849 50.1591 2.15359Z" fill="#FF8A00"/>
</svg>
