<svg width="25" height="27" viewBox="0 0 25 27" fill="none" xmlns="http://www.w3.org/2000/svg">
<path fill-rule="evenodd" clip-rule="evenodd" d="M16.6353 25.1962C19.0225 24.5358 21.5217 24.2027 23.9462 23.8976C24.4684 23.8336 24.9532 24.1906 24.9905 24.6936C25.0651 25.1969 24.6919 25.6573 24.207 25.7212C21.8571 26.015 19.4329 26.3294 17.1577 26.9651C16.6728 27.103 16.1504 26.8191 16.0012 26.3309C15.852 25.8429 16.1505 25.3344 16.6353 25.1962Z" fill="#FECE39"/>
<path fill-rule="evenodd" clip-rule="evenodd" d="M9.39965 15.8341C13.2414 11.9694 17.5681 8.60217 21.3353 4.6338C21.671 4.26318 22.2678 4.24332 22.6408 4.58931C23.0138 4.93566 23.051 5.51807 22.678 5.88869C18.9108 9.86845 14.5841 13.2467 10.7423 17.1228C10.3693 17.4846 9.77264 17.4897 9.39965 17.1338C9.06396 16.7783 9.02666 16.1959 9.39965 15.8341Z" fill="#FECE39"/>
<path fill-rule="evenodd" clip-rule="evenodd" d="M2.2004 0.969116C2.0885 3.18108 1.97682 5.39304 1.86493 7.60537C1.86493 8.11203 1.41712 8.50324 0.894933 8.47861C0.372747 8.4536 -2.52724e-05 8.02232 -2.52724e-05 7.51529C0.111872 5.29965 0.22355 3.08438 0.335448 0.869106C0.372747 0.362443 0.820408 -0.0261947 1.34259 0.00138131C1.82748 0.0289573 2.2377 0.462821 2.2004 0.969116Z" fill="#FECE39"/>
</svg>
