<svg width="44" height="44" viewBox="0 0 44 44" fill="none" xmlns="http://www.w3.org/2000/svg">
<path fill-rule="evenodd" clip-rule="evenodd" d="M10.1389 24.4362C9.97204 24.2724 9.80397 24.1086 9.6347 23.9461C7.90892 22.2918 6.19658 20.6357 4.58997 18.8616C4.20069 18.432 3.46981 17.5985 2.73586 17.1695C2.21092 16.8627 1.66762 16.7344 1.17078 16.7979C0.854228 16.8383 0.391637 16.9978 0.159414 17.6046C0.120303 17.7067 0.0738692 17.882 0.0555358 18.1057C0.0262025 18.4675 0.0549107 19.1165 0.0640774 19.2063C0.192411 20.5153 0.32074 21.7669 0.556017 23.0618C0.772351 24.2535 0.920233 25.4543 1.15307 26.6442C1.5014 28.4243 1.94997 30.1379 2.60386 31.8331C2.84647 32.4625 3.55475 32.776 4.18419 32.5334C4.81302 32.2908 5.12713 31.5832 4.88452 30.9537C4.28258 29.3923 3.87253 27.8144 3.5523 26.1748C3.3213 24.996 3.17524 23.8055 2.96074 22.6249C2.8214 21.8567 2.7224 21.1044 2.63806 20.3454L2.77801 20.5025C4.42373 22.3193 6.1758 24.0164 7.94314 25.7104C8.60436 26.3447 9.24298 26.9974 9.91459 27.6213C9.96898 27.7008 10.2201 28.065 10.3436 28.1896C10.5489 28.3974 10.7707 28.5135 10.9639 28.571C11.4546 28.7176 11.9526 28.6633 12.3878 28.1133C12.7135 27.7014 12.9011 27.0627 12.887 26.3001C12.8681 25.252 12.4703 23.8703 12.3859 23.2335C11.8518 19.2045 10.9877 15.1913 10.7579 11.1274C10.72 10.454 10.1425 9.93819 9.46909 9.97608C8.79564 10.0146 8.27923 10.5921 8.31773 11.2655C8.55057 15.3905 9.4202 19.4648 9.96226 23.555C9.99159 23.7725 10.0613 24.0824 10.1389 24.4362Z" fill="#274060"/>
<path fill-rule="evenodd" clip-rule="evenodd" d="M20.8184 7.7349C19.4324 8.10218 18.044 8.42239 16.9305 9.37451C15.7657 10.3712 15.1736 11.819 14.9628 13.4323C14.6939 15.4905 15.0544 17.8256 15.2781 19.4896C15.3942 20.3513 15.4437 21.5521 15.6949 22.6161C15.9112 23.5309 16.2797 24.3504 16.8413 24.9242C17.7237 25.8256 19.078 25.9167 20.467 25.3544C22.0718 24.7048 23.6699 23.2058 24.1044 22.3319C24.405 21.7281 24.1587 20.9936 23.5543 20.6935C22.9506 20.3929 22.2166 20.6391 21.916 21.2429C21.6404 21.7972 20.5679 22.6766 19.5497 23.0891C19.3224 23.1807 19.0975 23.2492 18.8848 23.2663C18.7742 23.2754 18.6636 23.2913 18.5885 23.215C18.22 22.8379 18.0904 22.225 17.9835 21.6059C17.8338 20.743 17.7922 19.8416 17.7011 19.1633C17.5007 17.6752 17.1463 15.5895 17.3864 13.7489C17.5154 12.7619 17.8069 11.8422 18.52 11.2323C19.3475 10.5246 20.4132 10.3712 21.4442 10.0981C22.0962 9.92574 22.4855 9.25596 22.3126 8.6039C22.1402 7.95185 21.4705 7.56257 20.8184 7.7349Z" fill="#274060"/>
<path fill-rule="evenodd" clip-rule="evenodd" d="M20.7247 14.1752C19.6509 14.76 18.5033 15.3613 17.3525 15.7744C16.7176 16.0024 16.387 16.7027 16.6143 17.3377C16.8423 17.9726 17.5426 18.3032 18.1775 18.0753C19.445 17.6206 20.7118 16.9661 21.8937 16.3226C22.4859 16 22.7052 15.2568 22.3826 14.6647C22.0599 14.0719 21.3174 13.8531 20.7247 14.1752Z" fill="#274060"/>
<path fill-rule="evenodd" clip-rule="evenodd" d="M35.4857 14.824C34.5934 13.7448 33.6505 12.6827 32.6544 11.7122C32.5731 11.6334 31.5685 10.806 30.9714 10.4967C30.5687 10.2883 30.2118 10.2505 30.0028 10.2706C29.3947 10.3293 29.0238 10.6587 28.8716 11.2221C28.7262 11.7624 28.6736 12.3252 28.6736 12.8996C27.7698 11.205 26.943 9.46214 26.4406 7.62697C26.3991 7.47541 26.3655 7.40452 26.36 7.39169C26.1907 7.01769 25.9505 6.89055 25.865 6.84044C25.4445 6.59355 25.0656 6.63514 24.746 6.77875C24.7069 6.79586 23.8452 7.17841 24.0512 8.15558C24.0677 8.23441 24.2082 8.79601 24.2492 9.0154C24.2852 9.20606 24.3634 9.37778 24.4728 9.52323C25.3149 11.942 26.6032 14.227 27.8395 16.4581C28.1065 16.9403 28.3149 17.4371 28.4524 17.9706C28.4927 18.1264 28.5092 18.4791 28.5447 18.652C28.6052 18.9447 28.7249 19.1409 28.8013 19.2411C29.1986 19.763 29.6881 19.8162 30.1397 19.6824C30.3328 19.6255 30.7196 19.4953 30.9549 18.9349C31.4841 17.6761 31.4242 16.2858 31.2708 14.8851C31.2256 14.4708 31.1694 14.0564 31.1352 13.647C32.2224 14.7274 33.2398 15.9191 34.1962 17.1102C34.3013 17.2409 35.3659 18.4314 35.6488 18.6086C36.3565 19.0535 36.9059 18.7192 37.1412 18.52C37.4999 18.2157 37.7822 17.6932 37.8971 17.0277C38.045 16.1666 37.9283 14.9817 37.9167 14.505C37.8391 11.2967 37.7229 7.94291 37.0024 4.81035C36.8515 4.1528 36.1952 3.74211 35.5376 3.89305C34.8801 4.044 34.4694 4.70096 34.6204 5.35791C35.3042 8.3328 35.3989 11.5185 35.4728 14.5643C35.4747 14.6346 35.4796 14.7226 35.4857 14.824Z" fill="#274060"/>
<path fill-rule="evenodd" clip-rule="evenodd" d="M40.3694 3.9976C40.8125 6.13955 41.2562 8.26192 41.5458 10.4644C41.6338 11.1335 42.248 11.6053 42.9171 11.5173C43.5857 11.4293 44.0575 10.8151 43.9695 10.146C43.5613 7.0397 42.8548 4.09049 42.2633 1.02638C42.0353 -0.157951 40.9097 0.00767679 40.8406 0.019899C40.6884 0.0467879 39.8592 0.223397 39.8317 1.19445C39.8298 1.25373 39.8696 1.67292 39.8763 1.83548C39.8909 2.20764 39.8836 2.57127 39.8646 2.94405C39.8426 3.37366 40.0449 3.76294 40.3694 3.9976Z" fill="#274060"/>
<path fill-rule="evenodd" clip-rule="evenodd" d="M43.5326 16.6286C43.6567 16.2509 43.5937 15.8195 43.3273 15.4852C42.9062 14.9578 42.1368 14.8716 41.6094 15.2927C41.1224 15.6814 41.0313 16.155 41.0967 16.7343C41.1725 17.4047 41.7787 17.8875 42.4491 17.8111C43.0621 17.742 43.518 17.2287 43.5326 16.6286Z" fill="#274060"/>
<path fill-rule="evenodd" clip-rule="evenodd" d="M20.4601 40.2053C20.3355 39.9413 20.2353 39.7329 20.2114 39.6883C19.076 37.5646 17.844 35.4691 16.5026 33.469C16.1267 32.9086 15.3671 32.7589 14.8068 33.1347C14.2464 33.5105 14.0966 34.2702 14.4725 34.8306C15.7686 36.7629 16.9585 38.7887 18.056 40.8408C18.1397 40.9973 18.6977 42.3876 19.0961 42.9675C19.4573 43.4924 19.9107 43.6801 20.1705 43.7186C20.583 43.7797 21.2283 43.6318 21.752 42.9327C22.4359 42.0203 23.3226 39.5826 23.4686 39.178C23.7363 38.4337 23.963 37.6527 24.1732 36.8931C24.5717 35.4521 24.8008 33.9854 25.0056 32.5077C25.0985 31.8391 24.631 31.2219 23.9624 31.129C23.2945 31.0368 22.6766 31.5043 22.5844 32.1722C22.3943 33.543 22.1871 34.9045 21.8174 36.241C21.6231 36.9419 21.4153 37.6637 21.1684 38.3506C21.0939 38.5565 20.8042 39.4072 20.4601 40.2053Z" fill="#274060"/>
</svg>
