<svg width="54" height="48" viewBox="0 0 54 48" fill="none" xmlns="http://www.w3.org/2000/svg">
<path d="M8.50087 28L7.90087 28.8L8.50087 28ZM34.5893 24.5L35.5808 24.6301L34.5893 24.5ZM29.5893 12.5L28.9893 13.3L29.5893 12.5ZM19.5009 21L18.504 21.079L19.5009 21ZM53.4373 39.53C53.73 39.0617 53.5876 38.4447 53.1193 38.152L45.4873 33.382C45.019 33.0893 44.402 33.2317 44.1093 33.7C43.8166 34.1683 43.959 34.7853 44.4273 35.078L51.2113 39.318L46.9713 46.102C46.6786 46.5703 46.821 47.1873 47.2893 47.48C47.7576 47.7727 48.3746 47.6303 48.6673 47.162L53.4373 39.53ZM3.24897 0.457873C1.43433 3.27056 0.184369 8.50155 0.547331 13.8798C0.912134 19.2854 2.92319 25.0667 7.90087 28.8L9.10087 27.2C4.7452 23.9333 2.88379 18.7979 2.54279 13.7452C2.19996 8.66511 3.41087 3.89611 4.92956 1.54213L3.24897 0.457873ZM7.90087 28.8C12.7761 32.4564 19.2364 34.0481 24.677 33.474C30.0947 32.9023 34.8633 30.0969 35.5808 24.6301L33.5978 24.3699C33.0537 28.5153 29.4449 30.9598 24.4671 31.4851C19.5121 32.0079 13.559 30.5436 9.10087 27.2L7.90087 28.8ZM35.5808 24.6301C35.9209 22.0385 35.8885 19.7485 35.0714 17.606C34.2507 15.4543 32.6858 13.5724 30.1893 11.7L28.9893 13.3C31.2928 15.0276 32.5582 16.6289 33.2027 18.3187C33.8507 20.0178 33.9183 21.9279 33.5978 24.3699L35.5808 24.6301ZM30.1893 11.7C28.5291 10.4549 26.8681 9.96923 25.2975 10.1638C23.7407 10.3567 22.4218 11.1995 21.3934 12.3256C19.3641 14.5476 18.2663 18.0774 18.504 21.079L20.4978 20.921C20.2999 18.4226 21.2463 15.4524 22.8702 13.6744C23.6682 12.8005 24.5781 12.2683 25.5434 12.1487C26.4949 12.0308 27.6495 12.2951 28.9893 13.3L30.1893 11.7ZM18.504 21.079C19.0115 27.486 20.8245 33.8518 26.0702 37.7849C31.3166 41.7186 39.7023 43.0002 52.8142 39.9744L52.3644 38.0256C39.4763 40.9998 31.8178 39.5946 27.27 36.1848C22.7215 32.7744 20.9904 27.1402 20.4978 20.921L18.504 21.079Z" fill="#FF8A00"/>
</svg>
