<svg width="55" height="24" viewBox="0 0 55 24" fill="none" xmlns="http://www.w3.org/2000/svg">
<path fill-rule="evenodd" clip-rule="evenodd" d="M52.7325 7.02291C39.2611 23.1796 18.2096 26.61 2.121 12.7443C1.58542 12.2826 0.775553 12.3406 0.31352 12.8666C-0.15067 13.4032 -0.0927 14.2109 0.442878 14.6725C17.6857 29.5447 40.2662 25.9691 54.7046 8.65844C55.156 8.11925 55.0821 7.30829 54.5379 6.85594C53.9916 6.41421 53.1839 6.48372 52.7325 7.02291Z" fill="black"/>
<path d="M18.9839 8.04864C21.006 8.45608 22.9769 7.15378 23.386 5.13983C23.795 3.12589 22.4874 1.163 20.4653 0.755566C18.4433 0.348132 16.4725 1.65044 16.0634 3.66439C15.6543 5.67833 16.9619 7.64121 18.9839 8.04864Z" fill="black"/>
<path d="M34.929 7.22368C36.9115 7.62315 38.8439 6.34631 39.2449 4.37173C39.646 2.39715 38.364 0.472615 36.3814 0.0731441C34.3989 -0.326327 32.4666 0.950531 32.0655 2.92511C31.6644 4.89969 32.9464 6.82421 34.929 7.22368Z" fill="black"/>
</svg>
