<svg width="90" height="85" viewBox="0 0 90 85" fill="none" xmlns="http://www.w3.org/2000/svg">
<path d="M41.3416 0.976954C41.4557 2.71363 41.4303 4.46297 41.2655 6.18697C41.2402 6.40247 41.2275 6.61797 41.1895 6.82079C41.1768 6.9222 41.1641 7.02362 41.1515 7.12503C41.1388 7.27715 41.1895 6.88418 41.1515 7.11236C41.1388 7.17574 41.1388 7.2518 41.1261 7.31518C41.0627 7.74618 40.9867 8.17717 40.9106 8.60817C40.7458 9.47017 40.5303 10.3322 40.2768 11.1688C40.15 11.5618 40.0233 11.9548 39.8838 12.3477C39.8078 12.5379 39.7443 12.728 39.6556 12.9182C39.6429 12.9562 39.5922 13.0196 39.5922 13.0703C39.5922 12.9435 39.6683 12.9055 39.6176 12.9942C39.5669 13.0956 39.5289 13.197 39.4782 13.2985C39.1739 13.9703 38.8063 14.6168 38.4007 15.2253C38.3119 15.3647 38.2105 15.5042 38.1091 15.6436C38.0584 15.7197 37.995 15.7957 37.9443 15.8718C37.9189 15.8971 37.8936 15.9352 37.8809 15.9605C38.0077 15.7323 37.9316 15.8971 37.8936 15.9478C37.6654 16.2394 37.4119 16.531 37.1584 16.8098C36.9049 17.076 36.6513 17.3296 36.3724 17.5831C36.2457 17.6972 36.1063 17.8113 35.9668 17.9254C35.9034 17.9761 35.84 18.0268 35.7767 18.0775C35.6753 18.1535 35.9668 17.9254 35.8147 18.0521C35.764 18.0902 35.7259 18.1155 35.6752 18.1535C35.3456 18.3944 35.0034 18.6226 34.6484 18.8254C34.2935 19.0282 33.9259 19.1803 33.5583 19.3705C33.571 19.3578 33.7737 19.2817 33.6343 19.3325C33.5836 19.3578 33.5329 19.3705 33.4822 19.3958C33.3808 19.4339 33.2794 19.4719 33.1653 19.5099C32.9752 19.5733 32.785 19.6367 32.5822 19.6874C32.1892 19.8015 31.7836 19.8775 31.3779 19.9282C31.1624 19.9536 30.9089 20.1818 30.8075 20.3592C30.7061 20.5494 30.668 20.7522 30.6934 20.9677C30.7568 21.4241 31.1497 21.7917 31.6314 21.7917C32.5568 21.779 33.4822 21.779 34.4076 21.8424C34.6231 21.8551 34.8259 21.8804 35.0414 21.9058C35.0541 21.9058 35.2823 21.9438 35.1302 21.9184C34.9654 21.8931 35.1935 21.9311 35.2189 21.9311C35.3329 21.9438 35.4471 21.9692 35.5611 21.9945C36.0175 22.0832 36.4612 22.1973 36.8922 22.3368C36.9682 22.3621 37.0569 22.4001 37.133 22.4255C37.171 22.4382 37.2217 22.4635 37.2598 22.4762C37.3358 22.5016 37.4119 22.5776 37.2091 22.4509C37.3612 22.5523 37.5513 22.603 37.7161 22.6917C38.033 22.8565 38.3373 23.034 38.6162 23.2368C38.6922 23.2875 38.7683 23.3382 38.8443 23.4016C38.8697 23.4269 38.9077 23.4523 38.9331 23.465C39.0599 23.5537 38.8824 23.4269 38.8697 23.4143C38.9965 23.541 39.1613 23.6551 39.3007 23.7692C39.5796 24.0227 39.8458 24.2763 40.0993 24.5551C40.2134 24.6819 40.3275 24.8087 40.4289 24.9354C40.4796 24.9988 40.5303 25.0622 40.5937 25.1383C40.6698 25.2397 40.4542 24.9481 40.5683 25.1002C40.6064 25.1509 40.6317 25.189 40.6697 25.2397C40.8852 25.5312 41.0754 25.8355 41.2655 26.1397C41.4557 26.4566 41.6332 26.7862 41.798 27.1158C41.874 27.2806 41.9501 27.4454 42.0261 27.6102C42.0388 27.6482 42.0515 27.6862 42.0768 27.7116C41.9754 27.4707 42.0388 27.6102 42.0641 27.6735C42.1022 27.775 42.1402 27.8637 42.1783 27.9651C42.4698 28.7257 42.6853 29.499 42.8501 30.2849C42.9008 30.5131 42.9388 30.7286 42.9769 30.9567C42.9895 31.0455 43.0022 31.1469 43.0276 31.2356C43.0402 31.3117 43.0529 31.3751 43.0529 31.4511C43.0529 31.4131 43.0402 31.3751 43.0402 31.337C43.0402 31.3877 43.0529 31.4258 43.0529 31.4765C43.1036 31.9328 43.1543 32.3765 43.1797 32.8329C43.3191 34.9245 43.1924 37.0288 43.0529 39.1077C43.0276 39.5767 43.4332 39.9824 43.8769 40.0458C44.3459 40.1091 44.7769 39.8176 44.9163 39.3612C45.9178 36.1795 46.0446 32.8202 46.7925 29.5877C46.9573 28.8651 47.1474 28.1426 47.4009 27.4327C47.4516 27.2806 47.5151 27.1285 47.5658 26.989C47.5911 26.913 47.6418 26.8369 47.6671 26.7482C47.6671 26.7609 47.5784 26.9637 47.6418 26.8242C47.6544 26.7862 47.6798 26.7355 47.6925 26.6975C47.832 26.3932 47.9714 26.1017 48.1235 25.8101C48.4277 25.227 48.7827 24.6692 49.1756 24.1495C49.201 24.1242 49.2263 24.0861 49.239 24.0608C49.1122 24.2509 49.1503 24.1748 49.1883 24.1241C49.239 24.0608 49.2898 23.9974 49.3405 23.934C49.4419 23.8072 49.5559 23.6805 49.67 23.5537C49.8855 23.3128 50.1137 23.0847 50.3419 22.8819C50.4813 22.7551 50.6081 22.641 50.7602 22.5269C50.7855 22.5016 50.8109 22.4889 50.8489 22.4635C50.6208 22.641 50.7855 22.5142 50.8236 22.4762C50.8996 22.4255 50.963 22.3748 51.0391 22.3241C51.318 22.1339 51.6095 21.9565 51.9138 21.8044C51.9898 21.7663 52.0785 21.7283 52.1546 21.6903C52.1926 21.6776 52.218 21.6649 52.256 21.6522C52.4335 21.5762 52.0659 21.7283 52.2307 21.6649C52.3955 21.6015 52.5603 21.5382 52.7377 21.4874C52.9152 21.4367 53.08 21.386 53.2575 21.348C53.3335 21.3353 53.4223 21.31 53.4983 21.2973C53.5744 21.2846 53.9293 21.2339 53.5997 21.2719C53.8532 21.2339 54.0941 21.1959 54.2716 20.9931C54.411 20.8409 54.4998 20.6635 54.5378 20.448C54.6012 20.017 54.3223 19.4972 53.8532 19.4085C53.4856 19.3325 53.118 19.2437 52.7504 19.1296C52.5856 19.0789 52.4335 19.0155 52.2687 18.9648C52.1799 18.9268 52.0913 18.8888 52.0025 18.8634C52.2941 18.9775 51.9644 18.8381 51.8884 18.8127C51.2165 18.4958 50.5701 18.1155 49.9743 17.6718C49.9489 17.6465 49.9109 17.6211 49.8855 17.6084C49.7588 17.507 49.9362 17.6465 49.9489 17.6592C49.8855 17.5958 49.7968 17.5451 49.7208 17.4817C49.5686 17.3549 49.4291 17.2408 49.2897 17.1141C49.0108 16.8605 48.732 16.5943 48.4784 16.3028C48.2249 16.0239 47.9841 15.745 47.7432 15.4535C47.7179 15.4154 47.6925 15.3774 47.6545 15.3394C47.6671 15.3521 47.7939 15.5168 47.6925 15.3901C47.6291 15.314 47.5784 15.238 47.515 15.1619C47.4009 15.0098 47.2869 14.845 47.1855 14.6929C46.7671 14.0717 46.3995 13.4126 46.0699 12.7407C45.9938 12.5759 45.9178 12.4238 45.8418 12.259C45.8164 12.221 45.8037 12.1703 45.7911 12.1322C45.7277 11.9928 45.8164 12.1829 45.8164 12.1956C45.7783 12.0815 45.7276 11.9801 45.6896 11.8787C45.5502 11.5364 45.4234 11.1815 45.2966 10.8265C44.7642 9.26734 44.3713 7.65744 44.0544 6.03486C43.8769 5.13483 43.7121 4.22213 43.5727 3.30942C43.5093 2.87842 43.4459 2.4601 43.3825 2.02911C43.3572 1.81361 43.3191 1.61078 43.2938 1.39528C43.2811 1.31922 43.2304 0.964281 43.2811 1.28119C43.2684 1.1671 43.2558 1.0657 43.2431 0.951608C43.2051 0.685402 43.1543 0.469896 42.9642 0.27975C42.7994 0.114956 42.5332 -0.0118023 42.2923 0.00087411C42.0515 0.0135506 41.7853 0.089603 41.6205 0.27975C41.4557 0.482573 41.3036 0.736102 41.3416 0.976954C41.7853 4.31086 42.2924 7.68279 43.3192 10.8899C44.3079 13.945 45.9178 16.8605 48.4404 18.9015C49.8729 20.055 51.5208 20.9424 53.3335 21.2846C53.4223 20.6635 53.4983 20.0423 53.5871 19.4212C52.8011 19.5226 52.0786 19.7254 51.3433 20.0423C50.6968 20.3212 50.101 20.7015 49.5432 21.1452C48.4531 21.9945 47.5531 23.0974 46.8432 24.2763C46.0953 25.5059 45.5502 26.8623 45.1826 28.2567C44.7389 29.9046 44.4853 31.6033 44.2318 33.2892C43.9529 35.1907 43.6614 37.0922 43.0782 38.9302C43.6994 39.019 44.3206 39.095 44.9417 39.1838C45.1826 35.4315 45.3981 31.5018 44.1304 27.8891C43.0783 24.8721 41.012 22.0452 38.0077 20.7776C35.9921 19.9282 33.7864 19.9029 31.6314 19.9282C31.7202 20.5494 31.7962 21.1705 31.885 21.7917C35.0794 21.348 37.8049 19.2817 39.6683 16.7465C41.7346 13.9323 42.6346 10.3956 43.0656 6.97292C43.3192 4.98272 43.3698 2.97983 43.2304 0.989628C43.1924 0.495246 42.8121 0.0135413 42.2797 0.0388942C41.798 0.0515706 41.3036 0.444544 41.3416 0.976954Z" fill="#FECE39"/>
<path d="M6.13897 26.748C6.35447 27.6988 6.54462 28.6622 6.70941 29.6256C6.79815 30.0946 6.87424 30.5636 6.93762 31.0327C6.97565 31.2735 7.01366 31.5017 7.03901 31.7426C7.05169 31.844 7.06434 31.9581 7.07702 32.0595C7.10237 32.2369 7.07702 32.0721 7.07702 32.0468C7.08969 32.1228 7.10239 32.1989 7.10239 32.2876C7.35592 34.2018 7.50801 36.1159 7.58407 38.0428C7.6221 38.8667 7.62215 39.678 7.57145 40.502C7.55877 40.6921 7.54604 40.8823 7.52069 41.0724C7.50801 41.1738 7.49536 41.2752 7.48269 41.3767C7.47001 41.4781 7.50804 41.5541 7.48269 41.3513C7.49536 41.4147 7.45731 41.4907 7.45731 41.5541C7.39393 41.9471 7.31787 42.3274 7.20378 42.7077C7.15307 42.8978 7.0897 43.0753 7.02632 43.2654C7.00097 43.3415 6.9503 43.4302 6.93762 43.5063C6.98833 43.3162 6.98829 43.4049 6.96294 43.4556C6.93759 43.519 6.91222 43.5697 6.88687 43.6331C6.7094 44.0007 6.50659 44.3429 6.26574 44.6725C6.20235 44.7486 6.15166 44.8373 6.08828 44.9134C6.10095 44.888 6.21507 44.7486 6.11366 44.8754C6.0883 44.9134 6.06292 44.9514 6.0249 44.9768C5.89813 45.1416 5.75867 45.3064 5.61922 45.4711C5.35302 45.7754 5.0615 46.0796 4.76994 46.3712C4.45303 46.6881 4.1234 46.9796 3.78114 47.2712C3.60367 47.4233 3.42622 47.5754 3.23608 47.7149C3.19805 47.7529 3.14734 47.7909 3.10931 47.8163C3.08396 47.829 2.93184 47.9557 3.04593 47.867C3.1727 47.7783 2.99522 47.905 2.98255 47.9177C2.93184 47.9557 2.86849 47.9938 2.81778 48.0445C2.05719 48.6022 1.27125 49.122 0.472637 49.6163C0.130373 49.8318 -0.0978523 50.2882 0.0415886 50.6938C0.168353 51.0741 0.535995 51.4164 0.954317 51.391C1.75293 51.3403 2.55155 51.3023 3.36284 51.3404C3.89525 51.3657 4.42766 51.4164 4.9474 51.4798C5.23896 51.5051 5.51781 51.5305 5.80937 51.5558C5.89811 51.5558 5.98685 51.5685 6.07559 51.5812C6.10094 51.5812 6.11362 51.5812 6.13897 51.5939C6.24038 51.6066 6.21502 51.6065 6.0629 51.5812C6.08825 51.5939 6.15168 51.5939 6.17704 51.5939C6.37986 51.6319 6.58266 51.6699 6.78548 51.7333C6.96295 51.784 7.14043 51.8474 7.30523 51.9108C7.35593 51.9235 7.39398 51.9488 7.44468 51.9615C7.57145 52.0122 7.21647 51.8601 7.40662 51.9488C7.50803 51.9995 7.5968 52.0375 7.69821 52.0882C8.05315 52.2657 8.38273 52.4685 8.69964 52.6967C8.73767 52.7221 8.77568 52.7601 8.81371 52.7855C8.95315 52.8869 8.7757 52.7601 8.76302 52.7474C8.80105 52.8108 8.94046 52.8869 8.99117 52.9376C9.15596 53.077 9.30811 53.2165 9.46022 53.3559C9.75178 53.6348 10.0434 53.939 10.2969 54.2432C10.4236 54.3954 10.5504 54.5475 10.6645 54.6996C10.5377 54.5221 10.8039 54.8771 10.6645 54.6996C10.6898 54.7376 10.7152 54.763 10.7406 54.801C10.8166 54.9024 10.8926 55.0038 10.956 55.1052C11.1969 55.4475 11.425 55.7898 11.6405 56.1447C12.1096 56.918 12.5406 57.7293 12.9336 58.5406C13.1491 58.9842 13.3646 59.4406 13.5674 59.8843C13.6181 59.9857 13.6561 60.0871 13.7068 60.1885C13.7322 60.2392 13.7576 60.3026 13.7829 60.3533C13.8463 60.5181 13.7829 60.366 13.7702 60.3279C13.8843 60.5815 13.973 60.835 14.0744 61.0885C14.8984 63.1675 15.5322 65.3098 15.9759 67.5028C16.0646 67.9719 16.5844 68.238 17.0154 68.1873C17.5225 68.124 17.7887 67.731 17.8394 67.2493C18.283 63.4337 17.3196 59.6434 17.5478 55.8151C17.5604 55.5109 17.5985 55.2067 17.6238 54.9151C17.6365 54.839 17.6492 54.763 17.6492 54.6869C17.6619 54.5602 17.6112 54.9531 17.6365 54.763C17.6365 54.725 17.6492 54.6996 17.6492 54.6616C17.6746 54.4968 17.6999 54.332 17.7252 54.1672C17.8393 53.5207 17.9914 52.8742 18.1689 52.253C18.2703 51.9235 18.3717 51.5939 18.4858 51.2643C18.5365 51.1122 18.5873 50.9727 18.6506 50.8333C18.676 50.7572 18.714 50.6812 18.7393 50.6051C18.8027 50.4657 18.714 50.6685 18.7013 50.6812C18.7267 50.6305 18.7394 50.5798 18.7647 50.5291C19.0309 49.9333 19.3351 49.3501 19.7028 48.8051C19.7915 48.6656 19.893 48.5262 19.9944 48.3867C20.007 48.3614 20.1211 48.2219 20.007 48.3614C19.9056 48.5008 20.0197 48.3487 20.0451 48.3234C20.0958 48.26 20.1464 48.1966 20.2098 48.1332C20.4253 47.8797 20.6662 47.6388 20.9197 47.4233C20.9831 47.3599 21.0592 47.3092 21.1226 47.2585C21.2113 47.1825 20.9451 47.3853 21.0465 47.3219C21.0845 47.2966 21.1225 47.2712 21.1606 47.2332C21.3 47.1444 21.4268 47.0557 21.5789 46.967C21.7184 46.8909 21.8578 46.8148 21.9972 46.7515C22.0226 46.7388 22.1747 46.6754 22.0099 46.7388C21.8578 46.8022 21.9846 46.7515 22.0226 46.7388C22.1113 46.7008 22.2 46.6754 22.2887 46.6501C22.669 46.5233 23.0113 46.1557 22.986 45.7374C22.9606 45.3064 22.7071 44.9641 22.2887 44.8247C20.6662 44.2796 18.9676 44.0514 17.3323 43.5316C17.1422 43.4683 16.952 43.4049 16.7619 43.3288C16.7238 43.3162 16.6858 43.3035 16.6477 43.2908C16.6224 43.2781 16.4576 43.1894 16.597 43.2654C16.7365 43.3415 16.5717 43.2528 16.5463 43.2401C16.4956 43.2147 16.4323 43.1894 16.3816 43.164C16.014 42.9992 15.6717 42.7964 15.3421 42.5682C15.2914 42.5302 15.2406 42.4922 15.1899 42.4668C15.0759 42.3908 15.2153 42.5049 15.2407 42.5049C15.2027 42.5175 15.0378 42.3401 14.9998 42.302C14.835 42.1499 14.6702 41.9978 14.5181 41.833C14.3913 41.6936 14.2646 41.5415 14.1378 41.3893C14.0744 41.3133 14.0111 41.2372 13.9477 41.1612C14.1125 41.3513 14.0111 41.2372 13.9731 41.1865C13.935 41.1358 13.897 41.0724 13.8463 41.0217C13.3899 40.4006 13.0096 39.7414 12.6673 39.0569C12.5786 38.8794 12.5026 38.7146 12.4265 38.5371C12.3885 38.4611 12.3505 38.385 12.3251 38.2963C12.2998 38.2583 12.2871 38.2076 12.2617 38.1695C12.1857 37.9921 12.3378 38.347 12.2617 38.1822C12.1096 37.8146 11.9701 37.4343 11.8307 37.0667C11.2602 35.4948 10.8166 33.8722 10.3222 32.275C9.63767 30.12 8.83907 28.003 7.7996 26.0001C7.57142 25.5565 6.91227 25.3917 6.49395 25.6579C6.0376 25.9494 5.91081 26.4818 6.15166 26.9635C6.40519 27.4452 6.64607 27.9396 6.87424 28.434C6.97565 28.6622 7.08973 28.8904 7.17846 29.1185C7.16579 29.0932 7.10239 28.9284 7.16578 29.0932C7.19113 29.1439 7.21649 29.2073 7.24185 29.258C7.29255 29.3847 7.34322 29.5115 7.39393 29.6256C7.74887 30.5129 8.06579 31.413 8.35735 32.3257C8.88976 33.9609 9.34614 35.6215 9.9039 37.2441C10.4363 38.7907 11.0828 40.3245 12.0082 41.6809C12.5026 42.4034 13.0603 43.1387 13.7448 43.6964C14.4801 44.3176 15.2914 44.7613 16.1914 45.1035C17.9915 45.8007 19.9437 46.0036 21.7691 46.612C21.7691 46.0036 21.7691 45.3951 21.7691 44.7739C19.0056 45.6613 17.421 48.4121 16.5463 50.9981C16.09 52.3291 15.8111 53.7235 15.6717 55.1179C15.4942 56.918 15.621 58.7434 15.7731 60.5434C15.9505 62.7618 16.1661 64.9802 15.9125 67.1986C16.5337 67.1098 17.1548 67.0338 17.776 66.9451C17.3703 64.9549 16.7999 62.99 16.09 61.0885C15.3674 59.1744 14.5181 57.2856 13.4913 55.5109C12.6166 54.0151 11.5645 52.5573 10.2208 51.4544C9.48558 50.8586 8.72495 50.3769 7.8376 50.0347C7.05166 49.7178 6.22772 49.629 5.39107 49.553C4.7826 49.5023 4.18684 49.4262 3.57837 49.3882C2.67834 49.3375 1.79096 49.3755 0.890935 49.4262C1.05573 50.022 1.20782 50.6051 1.37262 51.2009C2.86844 50.2755 4.32624 49.2614 5.63191 48.0571C6.92491 46.8529 8.12921 45.4712 8.77571 43.8105C9.39685 42.2133 9.49825 40.4259 9.46022 38.7146C9.4222 36.7751 9.27004 34.8356 9.04186 32.9215C8.77566 30.6651 8.39537 28.4087 7.90098 26.1903C7.7869 25.7086 7.20382 25.379 6.73479 25.5311C6.29111 25.7466 6.01221 26.2283 6.13897 26.748Z" fill="#FECE39"/>
<path d="M56.0082 52.2783C56.1856 52.9755 56.3251 53.6727 56.4265 54.3953C56.4139 54.3066 56.4011 54.2305 56.3885 54.1418C56.5786 55.5489 56.604 56.994 56.4138 58.4011C56.4265 58.3123 56.4392 58.2363 56.4518 58.1475C56.2997 59.2884 56.0082 60.4039 55.5645 61.4561C55.6025 61.38 55.6279 61.304 55.6659 61.2279C55.4504 61.735 55.2096 62.2293 54.918 62.6984C54.7786 62.9392 54.6138 63.1801 54.449 63.4083C54.3729 63.5097 54.2969 63.6111 54.2208 63.7125C54.4237 63.4463 54.2589 63.6618 54.2082 63.7252C54.1574 63.7885 54.1067 63.8519 54.056 63.9026C53.7011 64.3336 53.2954 64.7266 52.8771 65.0942C52.7757 65.183 52.6616 65.2717 52.5602 65.3604C52.4968 65.4111 52.2813 65.5759 52.5475 65.3731C52.4841 65.4111 52.4334 65.4618 52.3701 65.5125C52.1292 65.69 51.8757 65.8548 51.6222 66.0196C51.1405 66.3112 50.6587 66.5647 50.139 66.7802C50.2151 66.7422 50.2911 66.7168 50.3672 66.6788C49.9995 66.8309 49.632 66.983 49.2643 67.1478C49.0108 67.2619 48.77 67.3633 48.5798 67.5534C48.1488 67.9591 48.2248 68.6563 48.6685 68.9986C48.8967 69.176 49.201 69.2267 49.4672 69.3028C49.9235 69.4422 50.3798 69.607 50.8235 69.7972C50.7475 69.7592 50.6714 69.7338 50.5954 69.6958C51.7996 70.2155 52.9658 70.862 54.0053 71.6479C54.0307 71.6733 54.056 71.686 54.0814 71.7113C53.8659 71.5465 53.9546 71.6226 54.0053 71.6479C54.0687 71.6986 54.1194 71.7367 54.1828 71.7874C54.2969 71.8761 54.411 71.9775 54.5124 72.0663C54.7025 72.2437 54.8927 72.4212 55.0701 72.624C55.1589 72.7128 55.2349 72.8142 55.3237 72.9156C55.3617 72.9663 55.3997 73.017 55.4377 73.0677C55.4758 73.1184 55.5392 73.2071 55.3617 72.979C55.3871 73.017 55.4124 73.0424 55.4377 73.0804C55.5898 73.2832 55.742 73.4987 55.8688 73.7269C56.1984 74.2466 56.4645 74.8044 56.7181 75.3748C56.68 75.2988 56.6547 75.2227 56.6167 75.1466C57.5294 77.327 57.9477 79.6721 58.3533 81.9919C58.4547 82.6131 58.5688 83.2342 58.6829 83.8554C58.7209 84.0709 58.9364 84.3244 59.1139 84.4258C59.304 84.5272 59.5069 84.5652 59.7224 84.5399C60.1914 84.4765 60.5337 84.0835 60.5464 83.6018C60.5844 82.5497 60.6224 81.4975 60.6604 80.4327C60.6985 79.4186 60.6985 78.3918 60.8379 77.3777C60.8252 77.4664 60.8126 77.5425 60.7999 77.6312C60.9267 76.7565 61.1168 75.8819 61.345 75.0325C61.4591 74.6142 61.5858 74.1959 61.7126 73.7776C61.8267 73.4353 61.9281 73.0804 62.0675 72.7381C62.0295 72.8142 62.0041 72.8902 61.9661 72.9663C62.1436 72.5606 62.3718 72.1804 62.638 71.8254C62.676 71.7747 62.714 71.724 62.7521 71.6606C62.8408 71.5465 62.5872 71.8634 62.7267 71.686C62.8154 71.5719 62.9042 71.4705 62.9929 71.3564C63.1577 71.1536 63.3352 70.9634 63.5127 70.7733C63.8929 70.3803 64.2986 70 64.7169 69.6324C64.8183 69.5436 64.9197 69.4676 65.0211 69.3789C65.0718 69.3408 65.1226 69.3028 65.1733 69.2521C65.1986 69.2267 65.2239 69.2014 65.262 69.1887C65.2239 69.2141 65.0719 69.3408 65.186 69.2394C65.3888 69.0873 65.6043 68.9352 65.8071 68.7831C66.2254 68.5042 66.6564 68.238 67.1254 68.0478C67.0494 68.0859 66.9733 68.1112 66.8973 68.1492C66.9353 68.1366 66.9733 68.1239 67.0114 68.0985C67.2395 68.0098 67.455 67.883 67.5818 67.6675C67.6832 67.4774 67.7212 67.2746 67.6959 67.0591C67.6325 66.59 67.2395 66.2351 66.7578 66.2351C66.5423 66.2351 66.3268 66.2224 66.124 66.1971C66.2127 66.2097 66.2888 66.2224 66.3775 66.2351C65.9592 66.1717 65.5409 66.0576 65.1479 65.8928C65.224 65.9309 65.3001 65.9562 65.3761 65.9942C65.1353 65.8928 64.907 65.7787 64.6915 65.6393C64.5774 65.5759 64.4761 65.4999 64.362 65.4365C64.3113 65.3985 64.2479 65.3604 64.1972 65.3224C64.1718 65.3097 64.1464 65.2844 64.1211 65.2717C64.1084 65.259 64.0958 65.2463 64.0831 65.2463C63.9944 65.1703 64.2098 65.3477 64.1972 65.3351C63.7662 64.9801 63.3605 64.5998 62.9802 64.1815C62.8915 64.0674 62.7901 63.966 62.7014 63.8519C62.6633 63.8012 62.6126 63.7378 62.5746 63.6871C62.4732 63.5604 62.676 63.8139 62.638 63.7632C62.6126 63.7252 62.5873 63.6998 62.5619 63.6618C62.3718 63.4209 62.207 63.1674 62.0295 62.9139C61.6745 62.3815 61.3577 61.8237 61.0661 61.2533C60.7239 60.5941 60.4069 59.9096 60.1154 59.225C60.1534 59.3011 60.1787 59.3771 60.2168 59.4532C59.3675 57.4377 58.7083 55.3334 58.1632 53.2037C58.0364 52.7093 57.9223 52.2276 57.8082 51.7332C57.6942 51.2515 57.111 50.9219 56.642 51.0741C56.1603 51.2769 55.8814 51.7586 56.0082 52.2783C56.2744 53.4319 56.5659 54.5854 56.9082 55.7263C57.3012 57.0574 57.7576 58.3884 58.2773 59.6814C58.8351 61.0378 59.4562 62.3815 60.2422 63.6237C60.9394 64.7393 61.776 65.8294 62.8028 66.6534C63.2971 67.0464 63.8169 67.414 64.4 67.6675C65.0465 67.9464 65.6803 68.1239 66.3902 68.1873C66.5297 68.1999 66.6691 68.2 66.7958 68.2C66.7071 67.5788 66.631 66.9577 66.5423 66.3365C65.5028 66.7422 64.6028 67.376 63.7408 68.0732C62.8788 68.7704 62.0676 69.5563 61.383 70.431C61.0408 70.862 60.7238 71.293 60.4703 71.7874C60.1787 72.3705 59.9886 73.0043 59.7985 73.6255C59.3421 75.134 58.9745 76.6678 58.8604 78.2397C58.797 79.127 58.7843 80.0271 58.759 80.9144C58.7336 81.8271 58.6956 82.7271 58.6702 83.6399C59.2914 83.5511 59.9125 83.4751 60.5337 83.3863C60.0773 80.8637 59.735 78.3031 58.9238 75.8692C58.5054 74.6396 57.9857 73.41 57.2251 72.3451C56.8448 71.8001 56.4139 71.293 55.9322 70.8366C55.3744 70.3296 54.7532 69.8732 54.1194 69.4676C53.4222 69.0112 52.687 68.6056 51.9264 68.2633C51.4954 68.0605 51.0517 67.883 50.5954 67.7182C50.2277 67.5915 49.8601 67.4901 49.4925 67.376C49.5685 67.414 49.6446 67.4394 49.7207 67.4774C49.8348 67.5915 49.9362 67.6929 50.0502 67.807C50.0883 67.883 50.1137 67.9591 50.1517 68.0352C50.1644 68.1239 50.177 68.1999 50.1897 68.2887C50.177 68.3774 50.1644 68.4535 50.1517 68.5422C50.1137 68.6183 50.0883 68.6943 50.0502 68.7704C49.9742 68.8845 49.8728 69.0239 49.7587 69.0746C49.7841 69.0619 49.7967 69.0493 49.8221 69.0366C49.8855 68.9986 49.9489 68.9732 50.0122 68.9352C50.1897 68.8464 50.3798 68.7704 50.57 68.6943C50.4939 68.7323 50.4179 68.7577 50.3418 68.7957C50.8616 68.5802 51.394 68.3647 51.901 68.0985C52.4841 67.7943 53.0292 67.4394 53.549 67.0464C54.6518 66.1971 55.6025 65.1956 56.3505 64.0294C57.7956 61.811 58.4294 59.1236 58.4421 56.4996C58.4421 54.9277 58.2265 53.3432 57.8463 51.822C57.7195 51.3403 57.1618 50.998 56.6801 51.1628C56.173 51.2769 55.8687 51.7586 56.0082 52.2783Z" fill="#FECE39"/>
<path d="M68.8497 18.6477C68.9511 19.1167 69.0398 19.5857 69.1159 20.0547C69.1539 20.2829 69.192 20.5238 69.23 20.7646C69.2427 20.8407 69.306 21.1956 69.2553 20.9167C69.2806 21.0562 69.2934 21.1956 69.3061 21.3224C69.4201 22.2858 69.5089 23.2619 69.5596 24.238C69.661 26.2028 69.6483 28.1803 69.5088 30.1325C69.4708 30.6142 69.4328 31.0959 69.3947 31.5903C69.3694 31.8058 69.3567 32.034 69.3314 32.2495C69.3187 32.3509 69.306 32.4523 69.2934 32.5664C69.2934 32.6171 69.2807 32.6678 69.2807 32.7058C69.268 32.7819 69.2807 32.7439 69.2934 32.5917C69.2934 32.6298 69.2807 32.6678 69.2807 32.7058C69.1666 33.5171 68.9891 34.3157 68.7736 35.1017C68.6595 35.4946 68.5328 35.8876 68.3933 36.2679C68.3173 36.4581 68.2539 36.6482 68.1778 36.8384C68.1651 36.8891 68.1398 36.9271 68.1271 36.9778C68.2032 36.7369 68.1651 36.8764 68.1398 36.9398C68.0891 37.0412 68.051 37.1553 68.0003 37.2567C67.6581 38.0046 67.2651 38.7145 66.7961 39.399C66.6693 39.5891 66.5299 39.7793 66.3905 39.9568C66.3524 40.0075 66.2764 40.0708 66.4285 39.906C66.3904 39.9568 66.3397 40.0075 66.3017 40.0582C66.2256 40.1469 66.1622 40.2356 66.0862 40.3244C65.7946 40.6666 65.4904 40.9835 65.1608 41.3005C64.996 41.4526 64.8312 41.6047 64.6538 41.7568C64.565 41.8329 64.4636 41.8963 64.3876 41.9723C64.5523 41.8075 64.489 41.8962 64.4256 41.947C64.3749 41.985 64.3242 42.023 64.2608 42.061C63.8932 42.3273 63.5002 42.5808 63.0946 42.7963C62.7397 42.9864 62.5368 43.4808 62.6635 43.8738C62.7142 44.0259 62.7904 44.178 62.9044 44.2921C63.0439 44.4442 63.3608 44.5963 63.5763 44.571C64.4256 44.4696 65.2749 44.4189 66.1243 44.4442C66.5426 44.4569 66.9482 44.4823 67.3665 44.5203C67.4679 44.533 67.582 44.5456 67.6834 44.5583C67.7595 44.571 68.1398 44.6217 67.8102 44.571C68.0257 44.609 68.2412 44.6344 68.4567 44.6724C69.2807 44.8118 70.1046 45.0147 70.9032 45.2682C71.3089 45.395 71.7145 45.5344 72.1075 45.6992C72.1962 45.7372 72.2723 45.7626 72.361 45.8006C72.4117 45.826 72.4625 45.8386 72.5132 45.864C72.247 45.7626 72.4244 45.826 72.4878 45.8513C72.6906 45.94 72.8808 46.0288 73.0836 46.1175C73.8569 46.4851 74.6048 46.8908 75.3147 47.3471C75.6696 47.5753 76.0119 47.8035 76.3415 48.057C76.4302 48.1204 76.5189 48.1838 76.6076 48.2472C76.6457 48.2852 76.6964 48.3105 76.7344 48.3486C76.5316 48.1964 76.6203 48.2598 76.671 48.2979C76.8612 48.45 77.0387 48.5894 77.2161 48.7415C77.85 49.274 78.4584 49.8571 79.0162 50.4655C79.3077 50.7824 79.5866 51.112 79.8655 51.4543C79.9162 51.5303 79.9796 51.5937 80.0303 51.6698C79.8275 51.4289 80.0683 51.7205 80.1063 51.7839C80.2331 51.9614 80.3599 52.1388 80.4866 52.3163C81.0191 53.0896 81.5008 53.9008 81.9064 54.7375C82.0078 54.953 82.1092 55.1685 82.198 55.3713C82.274 55.5488 82.1092 55.1558 82.1853 55.346C82.2106 55.4093 82.236 55.4854 82.2613 55.5488C82.2994 55.6502 82.3374 55.7516 82.3754 55.853C82.5529 56.3094 82.705 56.7784 82.8318 57.2474C82.9712 57.7291 83.5163 58.0714 83.998 57.9066C84.2262 57.8305 84.4544 57.6911 84.5685 57.4756C84.6952 57.2347 84.7079 57.0066 84.6699 56.7404C84.6699 56.7277 84.6318 56.4868 84.6572 56.639C84.6825 56.7911 84.6446 56.5629 84.6446 56.5502C84.6319 56.4615 84.6192 56.3728 84.6065 56.284C84.5811 56.0812 84.5558 55.8784 84.5431 55.6755C84.5177 55.3586 84.4924 55.0417 84.4797 54.7248C84.467 54.2304 84.4797 53.7234 84.467 53.229C84.467 52.6078 84.429 51.9994 84.3656 51.3782C84.3149 50.9092 84.2516 50.4402 84.1882 49.9711C84.1502 49.6923 84.1121 49.4134 84.0741 49.1218C84.0614 49.0711 84.0614 49.0204 84.0487 48.9697C84.0107 48.7289 84.0741 49.1218 84.0487 48.9697C84.0361 48.8303 84.0107 48.7035 83.998 48.5641C83.884 47.664 83.7826 46.7513 83.7572 45.8386C83.7445 45.3696 83.7445 44.9133 83.7825 44.4442C83.7952 44.2287 83.8079 44.0005 83.8459 43.785C83.7952 44.0512 83.8713 43.6583 83.8713 43.6076C83.8966 43.4808 83.9093 43.3667 83.9347 43.24C84.0107 42.847 84.1248 42.4667 84.2516 42.0991C84.3023 41.9343 84.3656 41.7695 84.429 41.6047C84.4544 41.5286 84.4798 41.4526 84.5178 41.3892C84.5305 41.3385 84.5558 41.3005 84.5685 41.2498C84.6572 41.0469 84.5305 41.3512 84.5685 41.2624C84.8727 40.5906 85.215 39.9441 85.6206 39.3356C85.7347 39.1708 85.8995 38.9933 86.0009 38.8159C85.9882 38.8286 85.8615 38.9934 85.9629 38.8666C86.0009 38.8159 86.0389 38.7779 86.077 38.7271C86.1403 38.6511 86.2037 38.575 86.2671 38.499C86.5333 38.1947 86.8122 37.9032 87.1165 37.6243C87.2686 37.4848 87.4333 37.3454 87.5981 37.206C87.7249 37.1046 87.5601 37.244 87.5474 37.244C87.5982 37.2186 87.6362 37.1679 87.6869 37.1426C87.7756 37.0792 87.8644 37.0158 87.9404 36.9524C88.2827 36.7116 88.6376 36.5088 89.0179 36.3186C89.3729 36.1412 89.5757 35.6214 89.4489 35.2411C89.3095 34.8228 88.9672 34.5693 88.5362 34.5439C88.0925 34.5186 87.6488 34.4805 87.2052 34.4298C87.1037 34.4172 87.0023 34.4045 86.9009 34.3918C86.8502 34.3918 86.7995 34.3664 86.7488 34.3664C87.0023 34.3538 86.8375 34.3791 86.7615 34.3664C86.5333 34.3284 86.3052 34.3031 86.0897 34.265C85.2277 34.1129 84.3783 33.9228 83.5544 33.6819C83.136 33.5552 82.7304 33.4284 82.3247 33.2763C82.1346 33.2002 81.9444 33.1368 81.7416 33.0608C81.7162 33.0481 81.4501 32.9467 81.4501 32.9467C81.4881 32.9594 81.5261 32.9847 81.5641 32.9974C81.5261 32.9847 81.4881 32.9594 81.4501 32.9467C81.3994 32.9213 81.336 32.896 81.2853 32.8706C80.4867 32.5157 79.7261 32.11 78.9908 31.641C78.6232 31.4002 78.2556 31.1593 77.9133 30.8931C77.8753 30.8677 77.8499 30.8424 77.8119 30.817C77.8499 30.8551 78.0274 30.9692 77.8119 30.817C77.7358 30.7537 77.6471 30.6903 77.5711 30.6269C77.3936 30.4875 77.2288 30.3353 77.064 30.1832C76.7471 29.8917 76.4302 29.5874 76.1386 29.2705C75.8344 28.9409 75.5682 28.586 75.2766 28.2564C75.4541 28.4592 75.2386 28.2057 75.2006 28.1423C75.1372 28.0536 75.0738 27.9775 75.0105 27.8888C74.871 27.6986 74.7442 27.5085 74.6175 27.3183C74.3639 26.9381 74.1358 26.5451 73.9076 26.1521C73.4639 25.3662 73.0709 24.5549 72.7033 23.7182C72.6906 23.6802 72.6653 23.6422 72.6526 23.6041C72.6399 23.5661 72.6146 23.5281 72.6019 23.4901C72.6526 23.6168 72.6653 23.6295 72.6272 23.5408C72.5765 23.4267 72.5259 23.2999 72.4752 23.1858C72.3864 22.9576 72.2977 22.7295 72.2089 22.5013C72.0315 22.0323 71.854 21.5506 71.6892 21.0815C71.3469 20.1054 71.03 19.1294 70.7131 18.1533C70.561 17.6842 70.0413 17.3293 69.5469 17.4941C69.0398 17.6335 68.6849 18.1406 68.8497 18.6477C69.9906 22.2097 71.1821 25.8859 73.4005 28.9409C74.5287 30.5001 75.8851 31.8438 77.4824 32.9467C78.9909 33.9861 80.6768 34.7721 82.4135 35.3425C84.391 35.989 86.4572 36.344 88.5362 36.4581C88.3714 35.8623 88.2193 35.2792 88.0545 34.6834C85.1769 36.1158 83.1741 38.968 82.2994 42.023C81.767 43.8865 81.7923 45.826 82.0078 47.7274C82.0712 48.2598 82.1346 48.7796 82.2106 49.312C82.2233 49.4387 82.2487 49.5528 82.2613 49.6796C82.274 49.7303 82.274 49.781 82.2867 49.8317C82.3247 50.0726 82.2614 49.6796 82.2867 49.8444C82.3247 50.0852 82.3501 50.3388 82.3881 50.5796C82.4768 51.3275 82.5656 52.0754 82.5783 52.8233C82.5909 53.3938 82.5783 53.9642 82.5909 54.5347C82.6163 55.4347 82.7177 56.3347 82.8445 57.2348C83.4529 57.07 84.0614 56.8925 84.6826 56.7277C83.7065 53.2797 81.6782 50.1613 79.0162 47.7908C76.3541 45.4076 73.0583 43.671 69.5596 42.9484C67.6074 42.5428 65.5792 42.416 63.6016 42.6695C63.7664 43.2653 63.9185 43.8484 64.0833 44.4442C67.2017 42.7329 69.306 39.6525 70.4089 36.3313C70.9793 34.6073 71.2328 32.8199 71.3723 31.0072C71.5371 29.0043 71.5878 27.0014 71.5117 24.9986C71.423 22.7041 71.1821 20.4097 70.7131 18.1659C70.6117 17.6842 70.0159 17.3547 69.5469 17.5068C69.0018 17.6462 68.7483 18.1279 68.8497 18.6477Z" fill="#FECE39"/>
</svg>
