<svg width="56" height="56" viewBox="0 0 56 56" fill="none" xmlns="http://www.w3.org/2000/svg">
<rect width="56" height="56" rx="28" fill="white" fill-opacity="0.1"/>
<path d="M38.1922 21.679C37.4288 22.0167 36.6192 22.2385 35.7903 22.3371C36.6636 21.8143 37.3171 20.9918 37.629 20.023C36.8084 20.5106 35.9102 20.8537 34.9735 21.0376C34.1828 20.194 33.0777 19.716 31.9215 19.7173C29.6123 19.7173 27.7394 21.5896 27.7394 23.8998C27.7394 24.2275 27.777 24.5454 27.8473 24.852C24.3702 24.677 21.2898 23.013 19.2265 20.4824C18.855 21.1206 18.6597 21.8461 18.6607 22.5846C18.6607 24.0355 19.3993 25.3162 20.5212 26.0659C19.8571 26.0449 19.2076 25.8656 18.6269 25.5427C18.6262 25.5602 18.6262 25.5778 18.6262 25.5944C18.6262 27.6213 20.0679 29.3121 21.9817 29.696C21.6225 29.7932 21.252 29.8423 20.8799 29.842C20.6097 29.842 20.3474 29.8171 20.0925 29.7682C20.625 31.4294 22.1685 32.6388 23.9993 32.672C22.5178 33.8347 20.6884 34.4655 18.8051 34.4628C18.4718 34.4631 18.1388 34.4434 17.8078 34.404C19.7197 35.6331 21.9452 36.2854 24.2181 36.283C31.9113 36.283 36.1177 29.9104 36.1177 24.3841C36.1177 24.2032 36.1133 24.0218 36.1053 23.8429C36.924 23.2514 37.6307 22.5186 38.1922 21.679Z" fill="white"/>
</svg>
