<svg width="18" height="18" viewBox="0 0 18 18" fill="none" xmlns="http://www.w3.org/2000/svg">
<path d="M9.50725 15.3291C9.19416 15.1448 8.80573 15.1448 8.49264 15.3291L4.71987 17.55C3.97949 17.9859 3.07045 17.3468 3.22994 16.5026L4.10115 11.8915C4.16343 11.5618 4.05625 11.2229 3.81573 10.989L0.494492 7.75887C-0.106785 7.17409 0.235656 6.15346 1.06796 6.04968L5.47013 5.50075C5.81977 5.45715 6.12066 5.23277 6.26219 4.9101L8.08415 0.755999C8.43406 -0.0417917 9.56583 -0.0417861 9.91573 0.756007L11.7376 4.91009C11.8792 5.23277 12.1801 5.45715 12.5297 5.50075L16.9319 6.04968C17.7642 6.15346 18.1066 7.17409 17.5053 7.75886L14.1841 10.989C13.9436 11.2229 13.8364 11.5618 13.8987 11.8915L14.7699 16.5026C14.9294 17.3468 14.0204 17.9859 13.28 17.55L9.50725 15.3291Z" fill="#FF8A00"/>
</svg>
